<?xml version="1.0" encoding="UTF-8"?>
<svg id="_レイヤー_1" data-name="レイヤー 1" xmlns="http://www.w3.org/2000/svg" xmlns:xlink="http://www.w3.org/1999/xlink" viewBox="0 0 298.76 73">
  <defs>
    <style>
      .cls-1 {
        mask: url(#mask-1);
      }

      .cls-2, .cls-3 {
        fill: #fff;
      }

      .cls-4 {
        mask: url(#mask);
      }

      .cls-3 {
        fill-rule: evenodd;
      }

      .cls-5 {
        mask: url(#mask-2-2);
      }
    </style>
    <mask id="mask" x="97.91" y="7.44" width="3.84" height="8.68" maskUnits="userSpaceOnUse">
      <g id="mask-2">
        <polygon id="path-1" class="cls-3" points="97.91 16.12 101.75 16.12 101.75 7.44 97.91 7.44 97.91 16.12"/>
      </g>
    </mask>
    <mask id="mask-1" x="90.92" y="7.44" width="3.84" height="8.68" maskUnits="userSpaceOnUse">
      <g id="mask-4">
        <polygon id="path-3" class="cls-3" points="94.76 16.12 90.92 16.12 90.92 11.78 90.92 7.44 94.76 7.44 94.76 16.12"/>
      </g>
    </mask>
    <mask id="mask-2-2" data-name="mask-2" x="93.7" y="5.84" width="5.26" height="9.16" maskUnits="userSpaceOnUse">
      <g id="mask-6">
        <polygon id="path-5" class="cls-3" points="98.96 5.84 93.7 5.84 93.7 15 98.96 15 98.96 5.84"/>
      </g>
    </mask>
  </defs>
  <g>
    <path class="cls-2" d="M90.9,41.07v-13.61h1.32v13.61h-1.32ZM99.29,41.07l-6.38-6.98,5.91-6.63h1.67l-6.4,6.08,6.94,7.52h-1.75Z"/>
    <path class="cls-2" d="M101.94,41.07l5.23-13.61h1.21l5.23,13.61h-1.42l-2.41-6.38h-4.41l-2,6.38h-1.42ZM107.3,28.47l-1.81,5.75h4.1l-2.18-5.75h-.12Z"/>
    <path class="cls-2" d="M116.46,41.07l.49-13.88h.23l9.78,11.82h.12l-.43-11.55h1.32l-.49,13.88h-.23l-9.78-11.82h-.12l.43,11.55h-1.32Z"/>
    <path class="cls-2" d="M131.55,40.64l.12-1.17h.12c.51.44,1.08.78,1.71,1.03.63.25,1.26.37,1.89.37.88,0,1.59-.24,2.14-.73.54-.49.82-1.14.82-1.95,0-.45-.1-.88-.3-1.26-.2-.39-.53-.78-.99-1.19-.46-.4-1.09-.84-1.9-1.3-.56-.32-1.09-.66-1.59-1.02s-.92-.77-1.24-1.24c-.32-.47-.49-1.04-.49-1.7,0-.98.36-1.78,1.07-2.38.71-.6,1.65-.9,2.82-.9.52,0,1.08.06,1.67.17.6.11,1.06.25,1.38.42l-.1,1.09h-.12c-.74-.8-1.69-1.21-2.84-1.21-.83,0-1.5.21-2,.63-.51.42-.76.99-.76,1.7,0,.53.14.99.42,1.37.28.38.64.73,1.08,1.03.44.3.91.6,1.42.88.58.34,1.15.69,1.7,1.07.55.38,1,.83,1.36,1.35s.53,1.18.53,1.97c0,.73-.17,1.36-.51,1.92-.34.55-.81.98-1.43,1.29-.62.31-1.33.47-2.15.47-.52,0-1.13-.07-1.83-.19-.7-.13-1.37-.3-2-.51Z"/>
    <path class="cls-2" d="M141.27,41.07l5.23-13.61h1.21l5.23,13.61h-1.42l-2.41-6.38h-4.41l-2,6.38h-1.42ZM146.63,28.47l-1.81,5.75h4.1l-2.18-5.75h-.12Z"/>
    <path class="cls-2" d="M156.08,41.07v-13.61h1.32v13.61h-1.32Z"/>
    <path class="cls-2" d="M165.68,41.07l5.23-13.61h1.21l5.23,13.61h-1.42l-2.41-6.38h-4.41l-2,6.38h-1.42ZM171.05,28.47l-1.81,5.75h4.1l-2.18-5.75h-.12Z"/>
    <path class="cls-2" d="M180.5,27.46h2.61c1.37,0,2.44.29,3.2.86.76.58,1.14,1.38,1.14,2.42,0,.8-.24,1.47-.71,2-.47.53-1.16.89-2.05,1.07v.12c.86.17,1.56.57,2.1,1.21.54.64.95,1.42,1.22,2.35.25.86.49,1.52.73,1.99.24.47.5.81.8,1.02s.64.36,1.04.45v.12h-.8c-.57,0-1.04-.1-1.41-.31-.37-.21-.68-.56-.94-1.05-.26-.49-.51-1.17-.74-2.04-.38-1.33-.88-2.28-1.5-2.84-.62-.56-1.38-.84-2.28-.84h-.12v-.35h.12c2.09,0,3.13-.96,3.13-2.88s-.98-2.84-2.94-2.84h-1.28v13.14h-1.32v-13.61Z"/>
    <path class="cls-2" d="M192.98,41.07v-13.61h5.93v.95l-3.4-.45c-.6-.08-1-.12-1.21-.12v5.93c.17,0,.57-.02,1.21-.06l3.19-.19v.89l-3.19-.19c-.63-.04-1.04-.06-1.21-.06v6.51c.23,0,.64-.04,1.22-.12l3.44-.45v.95h-5.99Z"/>
    <path class="cls-2" d="M201.03,41.07l5.23-13.61h1.21l5.23,13.61h-1.42l-2.41-6.38h-4.41l-2,6.38h-1.42ZM206.39,28.47l-1.81,5.75h4.1l-2.18-5.75h-.12Z"/>
    <path class="cls-2" d="M219.9,40.64l.12-1.17h.12c.5.44,1.08.78,1.71,1.03s1.26.37,1.89.37c.88,0,1.59-.24,2.14-.73.54-.49.82-1.14.82-1.95,0-.45-.1-.88-.3-1.26-.2-.39-.53-.78-.99-1.19s-1.09-.84-1.9-1.3c-.56-.32-1.09-.66-1.59-1.02s-.92-.77-1.24-1.24-.49-1.04-.49-1.7c0-.98.36-1.78,1.07-2.38.71-.6,1.65-.9,2.82-.9.52,0,1.08.06,1.67.17.6.11,1.06.25,1.38.42l-.1,1.09h-.12c-.74-.8-1.68-1.21-2.84-1.21-.83,0-1.5.21-2,.63-.5.42-.76.99-.76,1.7,0,.53.14.99.42,1.37.28.38.64.73,1.08,1.03.44.3.91.6,1.42.88.58.34,1.15.69,1.7,1.07.55.38,1,.83,1.36,1.35s.54,1.18.54,1.97c0,.73-.17,1.36-.51,1.92s-.81.98-1.43,1.29c-.62.31-1.33.47-2.15.47-.52,0-1.13-.07-1.83-.19-.7-.13-1.37-.3-2-.51Z"/>
    <path class="cls-2" d="M234.76,41.07v-13.22c-.19,0-.6.04-1.21.12l-3.81.49v-.99h11.35v.99l-3.81-.49c-.61-.08-1.01-.12-1.21-.12v13.22h-1.32Z"/>
    <path class="cls-2" d="M244.05,27.46h1.32v8.2c0,1.57.38,2.79,1.16,3.66.77.88,1.86,1.31,3.26,1.31.88,0,1.65-.17,2.3-.52.65-.34,1.16-.82,1.52-1.43.36-.61.52-1.31.5-2.1l-.33-9.14h1.32l-.33,9.14c-.05,1.55-.52,2.73-1.39,3.54-.87.8-2.12,1.21-3.74,1.21-1.75,0-3.12-.51-4.1-1.53-.99-1.02-1.48-2.41-1.48-4.19v-8.17Z"/>
    <path class="cls-2" d="M259.76,41.07v-13.61h4.28c1.5,0,2.81.29,3.93.85,1.11.57,1.98,1.36,2.6,2.38.62,1.02.93,2.21.93,3.57s-.31,2.55-.93,3.57c-.62,1.02-1.49,1.81-2.6,2.38-1.12.57-2.42.86-3.93.86h-4.28ZM264.04,27.93h-2.96v12.67h2.96c1.88,0,3.35-.56,4.4-1.67,1.06-1.11,1.58-2.67,1.58-4.67s-.53-3.55-1.58-4.67c-1.06-1.11-2.52-1.67-4.4-1.67Z"/>
    <path class="cls-2" d="M275.58,41.07v-13.61h1.32v13.61h-1.32Z"/>
    <path class="cls-2" d="M281.96,41.07v-13.61h5.93v.95l-3.4-.45c-.6-.08-1-.12-1.21-.12v5.93c.17,0,.57-.02,1.21-.06l3.19-.19v.89l-3.19-.19c-.63-.04-1.04-.06-1.21-.06v6.51c.23,0,.64-.04,1.22-.12l3.44-.45v.95h-5.99Z"/>
    <path class="cls-2" d="M290.84,40.64l.12-1.17h.12c.5.44,1.08.78,1.71,1.03s1.26.37,1.89.37c.88,0,1.59-.24,2.14-.73.54-.49.82-1.14.82-1.95,0-.45-.1-.88-.3-1.26-.2-.39-.53-.78-.99-1.19s-1.09-.84-1.9-1.3c-.56-.32-1.09-.66-1.59-1.02s-.92-.77-1.24-1.24-.49-1.04-.49-1.7c0-.98.36-1.78,1.07-2.38.71-.6,1.65-.9,2.82-.9.52,0,1.08.06,1.67.17.6.11,1.06.25,1.38.42l-.1,1.09h-.12c-.74-.8-1.68-1.21-2.84-1.21-.83,0-1.5.21-2,.63-.5.42-.76.99-.76,1.7,0,.53.14.99.42,1.37.28.38.64.73,1.08,1.03.44.3.91.6,1.42.88.58.34,1.15.69,1.7,1.07.55.38,1,.83,1.36,1.35s.54,1.18.54,1.97c0,.73-.17,1.36-.51,1.92s-.81.98-1.43,1.29c-.62.31-1.33.47-2.15.47-.52,0-1.13-.07-1.83-.19-.7-.13-1.37-.3-2-.51Z"/>
  </g>
  <g>
    <g>
      <polygon class="cls-2" points="23.23 73 22 73 41.19 39.76 41.81 40.82 23.23 73"/>
      <polygon class="cls-2" points="59.16 73 60.39 73 41.2 39.76 40.59 40.83 59.16 73"/>
      <polygon class="cls-2" points="38.28 56.61 37.62 55.47 41.19 49.26 41.86 50.41 38.28 56.61"/>
      <polygon class="cls-2" points="53.62 73 54.9 73 41.19 49.26 40.58 50.41 53.62 73"/>
      <polygon class="cls-2" points="42.04 73 41.39 71.87 48.36 71.86 49.02 73 42.04 73"/>
      <polyline class="cls-2" points="48.36 71.86 38.26 54.36 37.62 55.47 47.74 73 49.02 73 48.36 71.86"/>
      <polyline class="cls-2" points="42.66 71.86 35.41 59.31 34.77 60.42 42.04 73 43.32 73 42.66 71.86"/>
      <polygon class="cls-2" points="28.83 73 27.53 73 35.41 59.31 36.07 60.45 28.83 73"/>
      <polygon class="cls-2" points="27.53 73 28.18 71.87 37.33 71.86 37.99 73 27.53 73"/>
      <polyline class="cls-2" points="37.33 71.86 36.71 70.75 36.07 71.86 36.71 73 37.99 73 37.33 71.86"/>
    </g>
    <g>
      <polygon class="cls-2" points="63.83 70.33 63.22 71.39 44.03 38.15 45.25 38.14 63.83 70.33"/>
      <polygon class="cls-2" points="81.8 39.21 82.41 38.14 44.03 38.14 44.65 39.21 81.8 39.21"/>
      <polygon class="cls-2" points="57.16 49.1 55.85 49.1 52.25 42.9 53.58 42.9 57.16 49.1"/>
      <polygon class="cls-2" points="79.03 44.01 79.67 42.9 52.25 42.9 52.94 44.01 79.03 44.01"/>
      <polygon class="cls-2" points="73.24 54.04 71.93 54.04 75.41 47.99 76.73 47.99 73.24 54.04"/>
      <polyline class="cls-2" points="75.41 47.99 55.21 47.99 55.85 49.1 76.09 49.1 76.73 47.99 75.41 47.99"/>
      <polyline class="cls-2" points="72.56 52.93 58.06 52.93 58.71 54.04 73.24 54.04 73.88 52.93 72.56 52.93"/>
      <polygon class="cls-2" points="66.63 65.48 65.98 66.6 58.06 52.93 59.39 52.93 66.63 65.48"/>
      <polygon class="cls-2" points="65.98 66.6 65.33 65.47 69.9 57.54 71.21 57.54 65.98 66.6"/>
      <polyline class="cls-2" points="69.9 57.54 68.63 57.52 69.27 58.63 70.57 58.65 71.21 57.54 69.9 57.54"/>
    </g>
    <g>
      <polygon class="cls-2" points="81.82 33.83 82.43 34.89 44.05 34.89 44.66 33.83 81.82 33.83"/>
      <polygon class="cls-2" points="63.85 2.71 63.24 1.64 44.05 34.88 45.28 34.88 63.85 2.71"/>
      <polygon class="cls-2" points="60.1 28.99 59.45 30.13 52.28 30.14 52.94 28.99 60.1 28.99"/>
      <polygon class="cls-2" points="66.62 7.51 65.98 6.4 52.28 30.14 53.58 30.1 66.62 7.51"/>
      <polygon class="cls-2" points="72.42 17.54 71.76 18.67 68.27 12.63 68.92 11.49 72.42 17.54"/>
      <polyline class="cls-2" points="68.27 12.63 58.16 30.13 59.45 30.13 69.57 12.6 68.92 11.49 68.27 12.63"/>
      <polyline class="cls-2" points="71.12 17.57 63.87 30.12 65.15 30.12 72.42 17.54 71.77 16.43 71.12 17.57"/>
      <polygon class="cls-2" points="79.02 28.98 79.67 30.1 63.87 30.12 64.53 28.98 79.02 28.98"/>
      <polygon class="cls-2" points="79.67 30.1 78.36 30.1 73.78 22.18 74.44 21.04 79.67 30.1"/>
      <polyline class="cls-2" points="73.78 22.18 73.13 23.28 74.41 23.27 75.08 22.15 74.44 21.04 73.78 22.18"/>
    </g>
    <g>
      <polygon class="cls-2" points="59.2 0 60.43 0 41.24 33.24 40.62 32.18 59.2 0"/>
      <polygon class="cls-2" points="23.27 0 22.04 0 41.23 33.24 41.84 32.17 23.27 0"/>
      <polygon class="cls-2" points="44.16 16.39 44.81 17.53 41.24 23.74 40.58 22.59 44.16 16.39"/>
      <polygon class="cls-2" points="28.81 0 27.53 0 41.24 23.74 41.86 22.59 28.81 0"/>
      <polygon class="cls-2" points="40.39 0 41.05 1.13 34.07 1.14 33.41 0 40.39 0"/>
      <polyline class="cls-2" points="34.07 1.14 44.17 18.64 44.81 17.53 34.69 0 33.41 0 34.07 1.14"/>
      <polyline class="cls-2" points="39.77 1.14 47.02 13.69 47.66 12.58 40.39 0 39.11 0 39.77 1.14"/>
      <polygon class="cls-2" points="53.6 0 54.9 0 47.02 13.69 46.36 12.55 53.6 0"/>
      <polygon class="cls-2" points="54.9 0 54.25 1.13 45.1 1.14 44.44 0 54.9 0"/>
      <polyline class="cls-2" points="45.1 1.14 45.72 2.25 46.36 1.14 45.72 0 44.44 0 45.1 1.14"/>
    </g>
    <g>
      <polygon class="cls-2" points="18.6 2.67 19.21 1.61 38.4 34.85 37.18 34.86 18.6 2.67"/>
      <polygon class="cls-2" points=".63 33.79 .02 34.86 38.4 34.86 37.78 33.79 .63 33.79"/>
      <polygon class="cls-2" points="25.27 23.9 26.58 23.9 30.18 30.1 28.85 30.1 25.27 23.9"/>
      <polygon class="cls-2" points="3.4 28.99 2.76 30.1 30.18 30.1 29.49 28.99 3.4 28.99"/>
      <polygon class="cls-2" points="9.2 18.96 10.5 18.96 7.02 25.01 5.7 25.01 9.2 18.96"/>
      <polyline class="cls-2" points="7.02 25.01 27.23 25.01 26.58 23.9 6.35 23.9 5.7 25.01 7.02 25.01"/>
      <polyline class="cls-2" points="9.87 20.07 24.37 20.07 23.73 18.96 9.2 18.96 8.56 20.07 9.87 20.07"/>
      <polygon class="cls-2" points="15.8 7.52 16.45 6.4 24.37 20.07 23.04 20.07 15.8 7.52"/>
      <polygon class="cls-2" points="16.45 6.4 17.1 7.53 12.53 15.46 11.22 15.46 16.45 6.4"/>
      <polyline class="cls-2" points="12.53 15.46 13.81 15.48 13.16 14.37 11.86 14.35 11.22 15.46 12.53 15.46"/>
    </g>
    <g>
      <polygon class="cls-2" points=".61 39.17 0 38.11 38.38 38.11 37.77 39.17 .61 39.17"/>
      <polygon class="cls-2" points="18.58 70.29 19.19 71.36 38.38 38.12 37.16 38.12 18.58 70.29"/>
      <polygon class="cls-2" points="22.33 44.01 22.99 42.87 30.16 42.86 29.49 44.01 22.33 44.01"/>
      <polygon class="cls-2" points="15.81 65.49 16.45 66.6 30.16 42.86 28.85 42.9 15.81 65.49"/>
      <polygon class="cls-2" points="10.02 55.46 10.67 54.33 14.17 60.37 13.51 61.51 10.02 55.46"/>
      <polyline class="cls-2" points="14.17 60.37 24.27 42.87 22.99 42.87 12.87 60.4 13.51 61.51 14.17 60.37"/>
      <polyline class="cls-2" points="11.32 55.43 18.56 42.88 17.28 42.88 10.02 55.46 10.66 56.57 11.32 55.43"/>
      <polygon class="cls-2" points="3.41 44.02 2.76 42.9 18.56 42.88 17.9 44.02 3.41 44.02"/>
      <polygon class="cls-2" points="2.76 42.9 4.07 42.9 8.65 50.82 7.99 51.96 2.76 42.9"/>
      <polyline class="cls-2" points="8.65 50.82 9.3 49.72 8.02 49.73 7.35 50.85 7.99 51.96 8.65 50.82"/>
    </g>
  </g>
  <g>
    <g>
      <path class="cls-2" d="M106.54,13.05c.05.5.26.77.73.77.31,0,.57-.17.7-.44.05-.1.17-.04.15.05-.16.5-.51.82-1.21.82s-1.21-.34-1.27-1.07c-.06-.66,0-1.57,0-2.63-.14,0-.41,0-.57.06-.06.02-.09-.09-.03-.12.19-.12.49-.31.8-.54.27-.2.52-.48.69-.62.06-.05.12.02.09.08-.02.07-.05.17-.06.35,0,.14,0,.37,0,.47.17,0,.52,0,1.03,0,.17,0,.26,0,.38-.05-.02.14-.11.37-.17.4-.26,0-.68,0-1.23,0-.04,1.07-.05,1.93,0,2.51Z"/>
      <path class="cls-2" d="M108.52,13.6c0-.2.04-.49.1-.79.02-.09.12-.08.12,0,.09.77.52,1.22,1.21,1.21.57,0,.84-.32.84-.68s-.27-.56-.95-.85c-.86-.35-1.23-.74-1.24-1.31,0-.67.5-1.12,1.45-1.13.37,0,.75.05.95.13.27.11.3.23.29.44,0,.18-.06.56-.1.71-.02.06-.1.06-.11,0-.11-.67-.55-1.05-1.05-1.04-.44,0-.68.23-.68.57s.21.52.91.83c.89.38,1.25.7,1.26,1.33,0,.69-.59,1.23-1.64,1.24-.4,0-.71-.05-.93-.12-.27-.08-.43-.21-.43-.55Z"/>
      <path class="cls-2" d="M114.77,10.48c-.07,0-.1,0-.18,0-.07,0-.09-.12,0-.13.48-.09,1.1-.24,1.29-.25.2,0,.21.07.22.28,0,.62,0,1.6,0,2.43,0,1.08.12,1.14.62,1.14.06,0,.07.13,0,.13-.31.02-.62.09-.83.13-.33.06-.67,0-.7-.6-.27.3-.64.62-1.31.62-.76,0-1.35-.33-1.35-1.37,0-.89.02-1.34,0-1.65-.03-.53-.12-.72-.41-.72-.07,0-.11,0-.18,0-.07,0-.09-.12,0-.13.48-.09,1.11-.24,1.3-.25.2,0,.21.07.22.29,0,.78-.03,2.12,0,2.42.02.37.11.93.82.93.35,0,.64-.11.92-.34,0-.23.04-1.56,0-2.23-.02-.53-.12-.72-.41-.72Z"/>
      <path class="cls-2" d="M117.76,11.35c0-1.07-.04-2.34-.05-2.5-.03-.53-.14-.73-.43-.73h-.12c-.07,0-.09-.12,0-.13.62-.12,1.09-.23,1.32-.23.13,0,.16.07.16.29v3.76c.37-.35.78-.74,1.21-1.16.11-.11.35-.34.02-.37-.08,0-.09-.13,0-.13.27,0,.54,0,.82,0,.24,0,.39-.02.65-.02.11,0,.09.12.02.13-.31.03-.52.09-.83.3-.44.29-.68.49-.9.67-.08.07-.07.1-.02.16.29.42,1.05,1.51,1.61,2.09.51.52.83.53,1.18.55.08,0,.1.11,0,.13-.17.03-.56.07-.78.07-.43,0-.89-.02-1.33-.48-.36-.39-.95-1.17-1.47-1.86l-.18.16c0,.54.02,1.06.04,1.41.03.49.14.52.51.57.07,0,.08.13,0,.13-.32,0-.76-.03-.97-.03-.16,0-.69.03-.85.03-.07,0-.06-.12,0-.13.21-.05.33-.09.37-.57.02-.2.03-.98.03-2.13Z"/>
      <path class="cls-2" d="M125.03,10.48c-.07,0-.1,0-.18,0-.07,0-.09-.12,0-.13.48-.09,1.1-.24,1.29-.25.2,0,.21.07.22.28,0,.62,0,1.6,0,2.43,0,1.08.12,1.14.62,1.14.06,0,.07.13,0,.13-.31.02-.62.09-.83.13-.33.06-.67,0-.7-.6-.27.3-.64.62-1.31.62-.76,0-1.35-.33-1.35-1.37,0-.89.02-1.34,0-1.65-.03-.53-.12-.72-.41-.72-.07,0-.11,0-.18,0-.07,0-.09-.12,0-.13.48-.09,1.11-.24,1.3-.25.2,0,.21.07.22.29,0,.78-.03,2.12,0,2.42.02.37.11.93.82.93.35,0,.64-.11.92-.34,0-.23.04-1.56,0-2.23-.02-.53-.12-.72-.41-.72Z"/>
      <path class="cls-2" d="M128.01,11.35c0-1.07-.04-2.34-.05-2.5-.03-.53-.14-.73-.43-.73h-.12c-.07,0-.09-.12,0-.13.62-.12,1.09-.23,1.32-.23.13,0,.16.07.16.29v3.76c.37-.35.78-.74,1.21-1.16.11-.11.35-.34.02-.37-.08,0-.09-.13,0-.13.27,0,.54,0,.82,0,.24,0,.39-.02.65-.02.11,0,.09.12.02.13-.31.03-.52.09-.83.3-.44.29-.68.49-.9.67-.08.07-.07.1-.02.16.29.42,1.05,1.51,1.61,2.09.51.52.83.53,1.18.55.08,0,.1.11,0,.13-.17.03-.56.07-.78.07-.43,0-.89-.02-1.33-.48-.36-.39-.95-1.17-1.47-1.86l-.18.16c0,.54.02,1.06.04,1.41.03.49.14.52.51.57.07,0,.08.13,0,.13-.32,0-.76-.03-.97-.03-.16,0-.69.03-.85.03-.07,0-.06-.12,0-.13.21-.05.33-.09.37-.57.02-.2.03-.98.03-2.13Z"/>
      <path class="cls-2" d="M134.69,10.06c1.21,0,2.11.78,2.11,2.08,0,1.08-.79,2.13-2.05,2.13s-2.13-.83-2.13-2.04.81-2.17,2.07-2.17ZM134.69,10.3c-.84,0-1.13.76-1.1,1.94.02.77.18,1.79,1.18,1.79.93,0,1.08-1.15,1.05-1.94-.03-.84-.28-1.79-1.13-1.79Z"/>
      <path class="cls-2" d="M137.52,10.48h-.12c-.07,0-.09-.12,0-.13.62-.13,1.04-.24,1.3-.24.15,0,.17.08.17.3v.35c.21-.29.63-.7,1.26-.7.59,0,1.03.2,1.22.72.27-.38.77-.72,1.36-.72.77,0,1.34.36,1.34,1.37,0,.67-.02,1.61,0,2.08.02.43.19.49.51.53.07,0,.08.13,0,.13-.34,0-.68-.03-.92-.03-.17,0-.64.02-.83.03-.07,0-.06-.12,0-.13.23-.03.3-.19.31-.52.02-.5.03-1.37,0-1.96-.03-.6-.21-.98-.84-.98-.32,0-.62.14-.89.42.03.14.05.38.05.58,0,.67,0,1.47.02,1.93.03.43.19.49.51.53.07,0,.08.13,0,.13-.34,0-.68-.03-.92-.03-.17,0-.64.02-.83.03-.07,0-.06-.12,0-.13.23-.03.3-.19.31-.52.03-.5.03-1.4,0-1.99-.03-.6-.24-.95-.8-.95-.41,0-.72.24-.87.43-.03.85-.03,1.82,0,2.47.03.49.14.52.51.57.07,0,.08.13,0,.13-.32,0-.76-.03-.97-.03-.16,0-.69.03-.85.03-.07,0-.06-.12,0-.13.21-.05.33-.09.37-.57.04-.48.03-1.96,0-2.26-.03-.53-.14-.73-.43-.73Z"/>
      <path class="cls-2" d="M146.33,14.25c-.73.02-1.11-.32-1.11-.96,0-.73.53-1.18,1.5-1.33.24-.04.61-.06.72-.06v-.77c0-.52-.1-.84-.6-.84-.18,0-.38.05-.5.18-.12.17-.19.44-.22.77,0,.12-.02.24,0,.37-.38,0-.64-.2-.64-.59,0-.6.72-.95,1.44-.95.83,0,1.43.35,1.43,1.12,0,.45,0,1.29,0,1.76,0,.96.15,1.05.64,1.01.07,0,.08.12,0,.13l-.94.15c-.36.06-.59-.07-.59-.6-.25.48-.68.62-1.11.63ZM146.44,12.42c-.23.19-.32.47-.32.76,0,.38.18.65.56.65.41,0,.71-.28.75-.58,0-.24,0-1.14,0-1.14-.47,0-.8.13-1,.31Z"/>
    </g>
    <g>
      <g id="Group-5">
        <g class="cls-4">
          <path id="Fill-3" class="cls-3" d="M98.1,14.61l1.73,1.29,1.73-1.29v-6.89l-1.67,1.28s-.08.03-.12,0l-1.67-1.28v6.89ZM99.83,16.12s-.04,0-.06-.02l-1.82-1.36s-.04-.05-.04-.08v-7.12s.02-.07.05-.09c.03-.02.07-.01.1,0l1.77,1.35,1.77-1.35s.07-.03.1,0c.03.02.05.05.05.09v7.12s-.01.06-.04.08l-1.83,1.36s-.04.02-.06.02h0Z"/>
        </g>
      </g>
      <path id="Fill-6" class="cls-3" d="M98.48,14.42l1.35,1,1.35-1v-5.92l-1.31,1s-.06.02-.08,0l-1.31-1v5.92ZM99.83,15.58s-.03,0-.04-.01l-1.41-1.05s-.03-.03-.03-.05v-6.08s.01-.05.04-.06c.02-.01.05,0,.07,0l1.37,1.05,1.37-1.05s.05-.02.07,0c.02.01.04.03.04.06v6.08s0,.04-.03.05l-1.41,1.05s-.03.01-.04.01h0Z"/>
      <g id="Group-12">
        <g class="cls-1">
          <path id="Fill-10" class="cls-3" d="M91.1,14.61l1.73,1.29,1.73-1.29v-6.89l-1.67,1.28s-.08.03-.12,0l-1.67-1.28v6.89ZM92.84,16.12s-.04,0-.06-.02l-1.83-1.36s-.04-.05-.04-.08v-7.12s.02-.07.05-.09c.03-.02.07-.01.1,0l1.77,1.35,1.77-1.35s.07-.03.1,0c.03.02.05.05.05.09v7.12s-.01.06-.04.08l-1.83,1.36s-.04.02-.06.02h0Z"/>
        </g>
      </g>
      <path id="Fill-13" class="cls-3" d="M91.49,14.42l1.35,1,1.35-1v-5.92l-1.31,1s-.06.02-.08,0l-1.31-1v5.92ZM92.84,15.58s-.03,0-.04-.01l-1.41-1.05s-.03-.03-.03-.05v-6.08s.01-.05.04-.06c.02-.01.05,0,.07,0l1.37,1.05,1.37-1.05s.05-.02.07,0c.02.01.04.03.04.06v6.08s0,.04-.03.05l-1.41,1.05s-.03.01-.04.01h0Z"/>
      <g id="Group-19">
        <g class="cls-5">
          <path id="Fill-17" class="cls-3" d="M93.92,13.02l2.41,1.74,2.41-1.74v-6.86l-2.35,1.64s-.09.03-.12,0l-2.35-1.64v6.86ZM96.33,15s-.04,0-.06-.02l-2.52-1.82s-.05-.05-.05-.09v-7.12s.02-.08.06-.1c.04-.02.08-.02.11,0l2.46,1.72,2.46-1.72s.08-.03.11,0c.04.02.06.06.06.1v7.12s-.02.07-.05.09l-2.52,1.82s-.04.02-.06.02h0Z"/>
        </g>
      </g>
      <path id="Fill-20" class="cls-3" d="M94.3,12.82l2.03,1.46,2.03-1.46v-5.93l-1.98,1.38s-.06.02-.09,0l-1.98-1.38v5.93ZM96.33,14.46s-.03,0-.05-.01l-2.11-1.52s-.03-.04-.03-.07v-6.12s.02-.06.04-.07c.03-.01.06-.01.08,0l2.06,1.44,2.06-1.44s.06-.02.08,0c.03.01.04.04.04.07v6.12s-.01.05-.03.07l-2.11,1.52s-.03.01-.05.01h0Z"/>
    </g>
  </g>
  <g>
    <path class="cls-2" d="M91,61.81v-6.8h.66v3.15h4.08v-3.15h.66v6.8h-.66v-3.42h-4.08v3.42h-.66Z"/>
    <path class="cls-2" d="M100.77,61.81v-6.8h2.96v.48l-1.7-.22c-.3-.04-.5-.06-.6-.06v2.96c.08,0,.29,0,.6-.03l1.59-.1v.45l-1.59-.1c-.32-.02-.52-.03-.6-.03v3.26c.12,0,.32-.02.61-.06l1.72-.22v.48h-2.99Z"/>
    <path class="cls-2" d="M106.65,61.81l2.61-6.8h.6l2.61,6.8h-.71l-1.21-3.19h-2.21l-1,3.19h-.71ZM109.33,55.51l-.9,2.88h2.05l-1.09-2.88h-.06Z"/>
    <path class="cls-2" d="M115.9,61.81v-6.8h2.14c.75,0,1.41.14,1.96.43.56.29.99.68,1.3,1.19.31.51.47,1.1.47,1.78s-.16,1.28-.47,1.78c-.31.51-.75.91-1.3,1.19-.56.29-1.21.43-1.96.43h-2.14ZM118.04,55.24h-1.48v6.34h1.48c.94,0,1.67-.28,2.2-.84.53-.56.79-1.33.79-2.33s-.26-1.78-.79-2.33c-.53-.56-1.26-.84-2.2-.84Z"/>
    <path class="cls-2" d="M125.17,58.41c0-.5.09-.96.27-1.39s.43-.81.75-1.13c.32-.32.7-.57,1.13-.75.43-.18.9-.27,1.4-.27s.96.09,1.4.27c.43.18.81.43,1.13.75.32.32.57.7.75,1.13s.27.9.27,1.39-.09.95-.26,1.37c-.17.42-.41.79-.72,1.11-.31.32-.67.57-1.09.75v.06c.31,0,.57.04.79.11s.41.18.58.34c.17.16.34.36.5.6.2.3.38.53.53.69s.35.28.61.36v.06h-.46c-.25,0-.46-.04-.61-.12-.16-.08-.28-.18-.38-.31s-.2-.27-.3-.41c-.11-.17-.23-.34-.37-.51-.14-.17-.3-.3-.49-.41-.19-.11-.44-.16-.73-.16h-1.13c-.5,0-.96-.09-1.4-.27-.43-.18-.81-.43-1.13-.75-.32-.32-.57-.7-.75-1.13-.18-.43-.27-.9-.27-1.4ZM125.91,58.41c0,.66.12,1.24.35,1.74s.56.88.98,1.16c.42.28.91.41,1.47.41s1.05-.14,1.47-.41c.42-.28.75-.66.98-1.16.23-.5.35-1.08.35-1.73s-.12-1.23-.35-1.73c-.23-.5-.56-.88-.98-1.16-.42-.28-.91-.42-1.47-.42s-1.04.14-1.46.41-.75.66-.98,1.16c-.24.5-.35,1.07-.35,1.74Z"/>
    <path class="cls-2" d="M136.04,55h.66v4.1c0,.78.19,1.39.58,1.83s.93.66,1.63.66c.44,0,.82-.09,1.15-.26.33-.17.58-.41.76-.71s.26-.66.25-1.05l-.17-4.57h.66l-.17,4.57c-.03.78-.26,1.37-.7,1.77-.44.4-1.06.6-1.87.6-.87,0-1.56-.25-2.05-.76-.49-.51-.74-1.21-.74-2.09v-4.08Z"/>
    <path class="cls-2" d="M144.73,61.81l2.61-6.8h.6l2.62,6.8h-.71l-1.21-3.19h-2.21l-1,3.19h-.71ZM147.41,55.51l-.9,2.88h2.05l-1.09-2.88h-.06Z"/>
    <path class="cls-2" d="M153.98,55h1.3c.69,0,1.22.14,1.6.43.38.29.57.69.57,1.21,0,.4-.12.74-.35,1s-.58.44-1.03.53v.06c.43.08.78.29,1.05.6s.48.71.61,1.18c.12.43.25.76.36,1,.12.24.25.41.4.51.15.1.32.18.52.22v.06h-.4c-.29,0-.52-.05-.71-.16s-.34-.28-.47-.53c-.13-.25-.25-.59-.37-1.02-.19-.67-.44-1.14-.75-1.42-.31-.28-.69-.42-1.14-.42h-.06v-.17h.06c1.04,0,1.57-.48,1.57-1.44s-.49-1.42-1.47-1.42h-.64v6.57h-.66v-6.8Z"/>
    <path class="cls-2" d="M163.63,61.81v-6.61c-.1,0-.3.02-.6.06l-1.9.24v-.5h5.68v.5l-1.9-.24c-.3-.04-.51-.06-.6-.06v6.61h-.66Z"/>
    <path class="cls-2" d="M170.22,61.81v-6.8h2.96v.48l-1.7-.22c-.3-.04-.5-.06-.6-.06v2.96c.08,0,.29,0,.6-.03l1.59-.1v.45l-1.59-.1c-.32-.02-.52-.03-.6-.03v3.26c.12,0,.32-.02.61-.06l1.72-.22v.48h-2.99Z"/>
    <path class="cls-2" d="M177.1,55h1.3c.69,0,1.22.14,1.6.43.38.29.57.69.57,1.21,0,.4-.12.74-.35,1s-.58.44-1.03.53v.06c.43.08.78.29,1.05.6s.48.71.61,1.18c.12.43.25.76.36,1,.12.24.25.41.4.51.15.1.32.18.52.22v.06h-.4c-.29,0-.52-.05-.71-.16s-.34-.28-.47-.53c-.13-.25-.25-.59-.37-1.02-.19-.67-.44-1.14-.75-1.42-.31-.28-.69-.42-1.14-.42h-.06v-.17h.06c1.04,0,1.57-.48,1.57-1.44s-.49-1.42-1.47-1.42h-.64v6.57h-.66v-6.8Z"/>
    <path class="cls-2" d="M184.59,61.6l.06-.58h.06c.25.22.54.39.86.51s.63.18.94.18c.44,0,.8-.12,1.07-.36.27-.24.41-.57.41-.98,0-.23-.05-.44-.15-.63s-.27-.39-.5-.59c-.23-.2-.55-.42-.95-.65-.28-.16-.54-.33-.8-.51-.25-.18-.46-.39-.62-.62s-.24-.52-.24-.85c0-.49.18-.89.54-1.19.36-.3.83-.45,1.41-.45.26,0,.54.03.84.08.3.05.53.12.69.21l-.05.54h-.06c-.37-.4-.84-.6-1.42-.6-.42,0-.75.11-1,.32-.25.21-.38.5-.38.85,0,.27.07.49.21.69.14.19.32.36.54.52.22.15.46.3.71.44.29.17.57.35.85.53.28.19.5.41.68.68.18.26.27.59.27.99,0,.36-.08.68-.25.96-.17.28-.41.49-.71.65-.31.16-.67.23-1.07.23-.26,0-.56-.03-.91-.1s-.68-.15-1-.25Z"/>
  </g>
</svg>