<?xml version="1.0" encoding="UTF-8"?>
<svg id="_レイヤー_1" data-name="レイヤー 1" xmlns="http://www.w3.org/2000/svg" xmlns:xlink="http://www.w3.org/1999/xlink" viewBox="0 0 208 150">
  <defs>
    <style>
      .cls-1 {
        mask: url(#mask-1);
      }

      .cls-2 {
        mask: url(#mask);
      }

      .cls-3 {
        fill: #fff;
      }

      .cls-3, .cls-4 {
        fill-rule: evenodd;
      }

      .cls-4 {
        fill: #1f0f08;
      }

      .cls-5 {
        fill: #231815;
      }

      .cls-6 {
        mask: url(#mask-2-2);
      }
    </style>
    <mask id="mask" x="76.23" y="137.08" width="4.42" height="9.98" maskUnits="userSpaceOnUse">
      <g id="mask-2">
        <polygon id="path-1" class="cls-3" points="76.23 147.07 80.65 147.07 80.65 137.08 76.23 137.08 76.23 147.07"/>
      </g>
    </mask>
    <mask id="mask-1" x="68.19" y="137.08" width="4.42" height="9.98" maskUnits="userSpaceOnUse">
      <g id="mask-4">
        <polygon id="path-3" class="cls-3" points="72.6 147.07 68.19 147.07 68.19 142.08 68.19 137.08 72.6 137.08 72.6 147.07"/>
      </g>
    </mask>
    <mask id="mask-2-2" data-name="mask-2" x="71.39" y="135.24" width="6.05" height="10.54" maskUnits="userSpaceOnUse">
      <g id="mask-6">
        <polygon id="path-5" class="cls-3" points="77.45 135.24 71.39 135.24 71.39 145.78 77.45 145.78 77.45 135.24"/>
      </g>
    </mask>
  </defs>
  <g>
    <g>
      <polygon class="cls-5" points="84.49 70.64 83.31 70.64 101.87 38.48 102.47 39.5 84.49 70.64"/>
      <polygon class="cls-5" points="119.26 70.64 120.45 70.64 101.88 38.48 101.29 39.5 119.26 70.64"/>
      <polygon class="cls-5" points="99.05 54.78 98.42 53.68 101.87 47.67 102.52 48.78 99.05 54.78"/>
      <polygon class="cls-5" points="113.9 70.64 115.14 70.64 101.87 47.67 101.28 48.78 113.9 70.64"/>
      <polygon class="cls-5" points="102.69 70.64 102.06 69.55 108.81 69.53 109.45 70.64 102.69 70.64"/>
      <polyline class="cls-5" points="108.81 69.53 99.03 52.6 98.42 53.68 108.21 70.64 109.45 70.64 108.81 69.53"/>
      <polyline class="cls-5" points="103.29 69.53 96.28 57.39 95.66 58.46 102.69 70.64 103.93 70.64 103.29 69.53"/>
      <polygon class="cls-5" points="89.91 70.64 88.66 70.64 96.28 57.39 96.92 58.5 89.91 70.64"/>
      <polygon class="cls-5" points="88.66 70.64 89.29 69.54 98.14 69.53 98.78 70.64 88.66 70.64"/>
      <polyline class="cls-5" points="98.14 69.53 97.54 68.46 96.92 69.53 97.54 70.64 98.78 70.64 98.14 69.53"/>
    </g>
    <g>
      <polygon class="cls-5" points="123.78 68.05 123.19 69.08 104.62 36.92 105.8 36.91 123.78 68.05"/>
      <polygon class="cls-5" points="141.17 37.94 141.76 36.91 104.62 36.91 105.22 37.94 141.17 37.94"/>
      <polygon class="cls-5" points="117.33 47.51 116.05 47.51 112.58 41.51 113.86 41.51 117.33 47.51"/>
      <polygon class="cls-5" points="138.48 42.58 139.1 41.51 112.58 41.51 113.24 42.58 138.48 42.58"/>
      <polygon class="cls-5" points="132.88 52.29 131.62 52.29 134.99 46.44 136.26 46.44 132.88 52.29"/>
      <polyline class="cls-5" points="134.99 46.44 115.43 46.44 116.05 47.51 135.64 47.51 136.26 46.44 134.99 46.44"/>
      <polyline class="cls-5" points="132.23 51.22 118.2 51.22 118.82 52.29 132.88 52.29 133.5 51.22 132.23 51.22"/>
      <polygon class="cls-5" points="126.49 63.36 125.86 64.44 118.2 51.22 119.48 51.22 126.49 63.36"/>
      <polygon class="cls-5" points="125.86 64.44 125.23 63.35 129.65 55.68 130.92 55.68 125.86 64.44"/>
      <polyline class="cls-5" points="129.65 55.68 128.42 55.66 129.04 56.74 130.3 56.75 130.92 55.68 129.65 55.68"/>
    </g>
    <g>
      <polygon class="cls-5" points="141.19 32.73 141.78 33.76 104.64 33.76 105.23 32.73 141.19 32.73"/>
      <polygon class="cls-5" points="123.8 2.62 123.21 1.59 104.64 33.75 105.82 33.75 123.8 2.62"/>
      <polygon class="cls-5" points="120.17 28.05 119.54 29.15 112.6 29.16 113.24 28.05 120.17 28.05"/>
      <polygon class="cls-5" points="126.48 7.27 125.86 6.19 112.6 29.16 113.86 29.13 126.48 7.27"/>
      <polygon class="cls-5" points="132.09 16.97 131.46 18.06 128.07 12.22 128.71 11.12 132.09 16.97"/>
      <polyline class="cls-5" points="128.07 12.22 118.3 29.16 119.54 29.15 129.33 12.19 128.71 11.12 128.07 12.22"/>
      <polyline class="cls-5" points="130.83 17 123.82 29.15 125.06 29.15 132.09 16.97 131.47 15.9 130.83 17"/>
      <polygon class="cls-5" points="138.48 28.04 139.1 29.13 123.82 29.15 124.46 28.04 138.48 28.04"/>
      <polygon class="cls-5" points="139.1 29.13 137.84 29.13 133.41 21.46 134.04 20.36 139.1 29.13"/>
      <polyline class="cls-5" points="133.41 21.46 132.78 22.52 134.02 22.52 134.66 21.43 134.04 20.36 133.41 21.46"/>
    </g>
    <g>
      <polygon class="cls-5" points="119.3 0 120.49 0 101.92 32.16 101.32 31.14 119.3 0"/>
      <polygon class="cls-5" points="84.53 0 83.34 0 101.91 32.16 102.5 31.13 84.53 0"/>
      <polygon class="cls-5" points="104.74 15.86 105.38 16.96 101.92 22.97 101.28 21.86 104.74 15.86"/>
      <polygon class="cls-5" points="89.89 0 88.66 0 101.92 22.97 102.52 21.86 89.89 0"/>
      <polygon class="cls-5" points="101.1 0 101.73 1.09 94.98 1.1 94.35 0 101.1 0"/>
      <polyline class="cls-5" points="94.98 1.1 104.76 18.04 105.38 16.96 95.59 0 94.35 0 94.98 1.1"/>
      <polyline class="cls-5" points="100.5 1.1 107.51 13.25 108.13 12.18 101.1 0 99.86 0 100.5 1.1"/>
      <polygon class="cls-5" points="113.88 0 115.14 0 107.51 13.25 106.87 12.14 113.88 0"/>
      <polygon class="cls-5" points="115.14 0 114.51 1.09 105.65 1.1 105.02 0 115.14 0"/>
      <polyline class="cls-5" points="105.65 1.1 106.25 2.18 106.87 1.1 106.26 0 105.02 0 105.65 1.1"/>
    </g>
    <g>
      <polygon class="cls-5" points="80.01 2.59 80.6 1.56 99.17 33.72 97.99 33.73 80.01 2.59"/>
      <polygon class="cls-5" points="62.63 32.7 62.03 33.73 99.17 33.73 98.58 32.7 62.63 32.7"/>
      <polygon class="cls-5" points="86.47 23.12 87.74 23.12 91.22 29.13 89.93 29.13 86.47 23.12"/>
      <polygon class="cls-5" points="65.31 28.05 64.69 29.13 91.22 29.13 90.55 28.05 65.31 28.05"/>
      <polygon class="cls-5" points="70.91 18.35 72.17 18.35 68.81 24.2 67.53 24.2 70.91 18.35"/>
      <polyline class="cls-5" points="68.81 24.2 88.36 24.2 87.74 23.12 68.15 23.12 67.53 24.2 68.81 24.2"/>
      <polyline class="cls-5" points="71.57 19.42 85.59 19.42 84.97 18.35 70.91 18.35 70.29 19.42 71.57 19.42"/>
      <polygon class="cls-5" points="77.3 7.28 77.93 6.19 85.59 19.42 84.31 19.42 77.3 7.28"/>
      <polygon class="cls-5" points="77.93 6.19 78.56 7.29 74.14 14.96 72.87 14.96 77.93 6.19"/>
      <polyline class="cls-5" points="74.14 14.96 75.37 14.98 74.75 13.9 73.49 13.88 72.87 14.96 74.14 14.96"/>
    </g>
    <g>
      <polygon class="cls-5" points="62.61 37.91 62.01 36.88 99.15 36.88 98.57 37.91 62.61 37.91"/>
      <polygon class="cls-5" points="79.99 68.02 80.59 69.05 99.16 36.89 97.97 36.89 79.99 68.02"/>
      <polygon class="cls-5" points="83.62 42.58 84.26 41.48 91.19 41.47 90.55 42.58 83.62 42.58"/>
      <polygon class="cls-5" points="77.31 63.37 77.93 64.45 91.19 41.47 89.93 41.51 77.31 63.37"/>
      <polygon class="cls-5" points="71.71 53.67 72.34 52.57 75.72 58.41 75.08 59.52 71.71 53.67"/>
      <polyline class="cls-5" points="75.72 58.41 85.5 41.48 84.26 41.48 74.46 58.44 75.08 59.52 75.72 58.41"/>
      <polyline class="cls-5" points="72.96 53.64 79.98 41.49 78.74 41.49 71.71 53.67 72.33 54.74 72.96 53.64"/>
      <polygon class="cls-5" points="65.32 42.6 64.69 41.51 79.98 41.49 79.33 42.6 65.32 42.6"/>
      <polygon class="cls-5" points="64.69 41.51 65.95 41.51 70.39 49.17 69.75 50.28 64.69 41.51"/>
      <polyline class="cls-5" points="70.39 49.17 71.02 48.12 69.78 48.12 69.13 49.2 69.75 50.28 70.39 49.17"/>
    </g>
  </g>
  <g>
    <path class="cls-5" d="M.07,103.79v-13.61h1.32v13.61H.07ZM8.47,103.79l-6.38-6.98,5.91-6.63h1.67l-6.4,6.08,6.94,7.52h-1.75Z"/>
    <path class="cls-5" d="M11.11,103.79l5.23-13.61h1.21l5.23,13.61h-1.42l-2.41-6.38h-4.41l-2,6.38h-1.42ZM16.47,91.19l-1.81,5.75h4.1l-2.18-5.75h-.12Z"/>
    <path class="cls-5" d="M25.63,103.79l.49-13.88h.23l9.78,11.82h.12l-.43-11.55h1.32l-.49,13.88h-.23l-9.78-11.82h-.12l.43,11.55h-1.32Z"/>
    <path class="cls-5" d="M40.72,103.36l.12-1.17h.12c.51.44,1.08.78,1.71,1.03.63.25,1.26.37,1.89.37.88,0,1.59-.24,2.14-.73.54-.49.82-1.14.82-1.95,0-.45-.1-.88-.3-1.26-.2-.39-.53-.78-.99-1.19-.46-.4-1.09-.84-1.9-1.3-.56-.32-1.09-.66-1.59-1.02s-.92-.77-1.24-1.24c-.32-.47-.49-1.04-.49-1.7,0-.98.36-1.78,1.07-2.38.71-.6,1.65-.9,2.82-.9.52,0,1.08.06,1.67.17.6.11,1.06.25,1.38.42l-.1,1.09h-.12c-.74-.8-1.69-1.21-2.84-1.21-.83,0-1.5.21-2,.63-.51.42-.76.99-.76,1.7,0,.53.14.99.42,1.37.28.38.64.73,1.08,1.03.44.3.91.6,1.42.88.58.34,1.15.69,1.7,1.07.55.38,1,.83,1.36,1.35s.53,1.18.53,1.97c0,.73-.17,1.36-.51,1.92-.34.55-.81.98-1.43,1.29-.62.31-1.33.47-2.15.47-.52,0-1.13-.07-1.83-.19-.7-.13-1.37-.3-2-.51Z"/>
    <path class="cls-5" d="M50.44,103.79l5.23-13.61h1.21l5.23,13.61h-1.42l-2.41-6.38h-4.41l-2,6.38h-1.42ZM55.8,91.19l-1.81,5.75h4.1l-2.18-5.75h-.12Z"/>
    <path class="cls-5" d="M65.25,103.79v-13.61h1.32v13.61h-1.32Z"/>
    <path class="cls-5" d="M74.85,103.79l5.23-13.61h1.21l5.23,13.61h-1.42l-2.41-6.38h-4.41l-2,6.38h-1.42ZM80.22,91.19l-1.81,5.75h4.1l-2.18-5.75h-.12Z"/>
    <path class="cls-5" d="M89.67,90.18h2.61c1.37,0,2.44.29,3.2.86.76.58,1.14,1.38,1.14,2.42,0,.8-.24,1.47-.71,2-.47.53-1.16.89-2.05,1.07v.12c.86.17,1.56.57,2.1,1.21.54.64.95,1.42,1.22,2.35.25.86.49,1.52.73,1.99.24.47.5.81.8,1.02s.64.36,1.04.45v.12h-.8c-.57,0-1.04-.1-1.41-.31-.37-.21-.68-.56-.94-1.05-.26-.49-.51-1.17-.74-2.04-.38-1.33-.88-2.28-1.5-2.84-.62-.56-1.38-.84-2.28-.84h-.12v-.35h.12c2.09,0,3.13-.96,3.13-2.88s-.98-2.84-2.94-2.84h-1.28v13.14h-1.32v-13.61Z"/>
    <path class="cls-5" d="M102.15,103.79v-13.61h5.93v.95l-3.4-.45c-.6-.08-1-.12-1.21-.12v5.93c.17,0,.57-.02,1.21-.06l3.19-.19v.89l-3.19-.19c-.63-.04-1.04-.06-1.21-.06v6.51c.23,0,.64-.04,1.22-.12l3.44-.45v.95h-5.99Z"/>
    <path class="cls-5" d="M110.2,103.79l5.23-13.61h1.21l5.23,13.61h-1.42l-2.41-6.38h-4.41l-2,6.38h-1.42ZM115.56,91.19l-1.81,5.75h4.1l-2.18-5.75h-.12Z"/>
    <path class="cls-5" d="M129.07,103.36l.12-1.17h.12c.5.44,1.08.78,1.71,1.03s1.26.37,1.89.37c.88,0,1.59-.24,2.14-.73.54-.49.82-1.14.82-1.95,0-.45-.1-.88-.3-1.26-.2-.39-.53-.78-.99-1.19s-1.09-.84-1.9-1.3c-.56-.32-1.09-.66-1.59-1.02s-.92-.77-1.24-1.24-.49-1.04-.49-1.7c0-.98.36-1.78,1.07-2.38.71-.6,1.65-.9,2.82-.9.52,0,1.08.06,1.67.17.6.11,1.06.25,1.38.42l-.1,1.09h-.12c-.74-.8-1.68-1.21-2.84-1.21-.83,0-1.5.21-2,.63-.5.42-.76.99-.76,1.7,0,.53.14.99.42,1.37.28.38.64.73,1.08,1.03.44.3.91.6,1.42.88.58.34,1.15.69,1.7,1.07.55.38,1,.83,1.36,1.35s.54,1.18.54,1.97c0,.73-.17,1.36-.51,1.92s-.81.98-1.43,1.29c-.62.31-1.33.47-2.15.47-.52,0-1.13-.07-1.83-.19-.7-.13-1.37-.3-2-.51Z"/>
    <path class="cls-5" d="M143.93,103.79v-13.22c-.19,0-.6.04-1.21.12l-3.81.49v-.99h11.35v.99l-3.81-.49c-.61-.08-1.01-.12-1.21-.12v13.22h-1.32Z"/>
    <path class="cls-5" d="M153.22,90.18h1.32v8.2c0,1.57.38,2.79,1.16,3.66.77.88,1.86,1.31,3.26,1.31.88,0,1.65-.17,2.3-.52.65-.34,1.16-.82,1.52-1.43.36-.61.52-1.31.5-2.1l-.33-9.14h1.32l-.33,9.14c-.05,1.55-.52,2.73-1.39,3.54-.87.8-2.12,1.21-3.74,1.21-1.75,0-3.12-.51-4.1-1.53-.99-1.02-1.48-2.41-1.48-4.19v-8.17Z"/>
    <path class="cls-5" d="M168.93,103.79v-13.61h4.28c1.5,0,2.81.29,3.93.85,1.11.57,1.98,1.36,2.6,2.38.62,1.02.93,2.21.93,3.57s-.31,2.55-.93,3.57c-.62,1.02-1.49,1.81-2.6,2.38-1.12.57-2.42.86-3.93.86h-4.28ZM173.21,90.65h-2.96v12.67h2.96c1.88,0,3.35-.56,4.4-1.67,1.06-1.11,1.58-2.67,1.58-4.67s-.53-3.55-1.58-4.67c-1.06-1.11-2.52-1.67-4.4-1.67Z"/>
    <path class="cls-5" d="M184.75,103.79v-13.61h1.32v13.61h-1.32Z"/>
    <path class="cls-5" d="M191.13,103.79v-13.61h5.93v.95l-3.4-.45c-.6-.08-1-.12-1.21-.12v5.93c.17,0,.57-.02,1.21-.06l3.19-.19v.89l-3.19-.19c-.63-.04-1.04-.06-1.21-.06v6.51c.23,0,.64-.04,1.22-.12l3.44-.45v.95h-5.99Z"/>
    <path class="cls-5" d="M200.01,103.36l.12-1.17h.12c.5.44,1.08.78,1.71,1.03s1.26.37,1.89.37c.88,0,1.59-.24,2.14-.73.54-.49.82-1.14.82-1.95,0-.45-.1-.88-.3-1.26-.2-.39-.53-.78-.99-1.19s-1.09-.84-1.9-1.3c-.56-.32-1.09-.66-1.59-1.02s-.92-.77-1.24-1.24-.49-1.04-.49-1.7c0-.98.36-1.78,1.07-2.38.71-.6,1.65-.9,2.82-.9.52,0,1.08.06,1.67.17.6.11,1.06.25,1.38.42l-.1,1.09h-.12c-.74-.8-1.68-1.21-2.84-1.21-.83,0-1.5.21-2,.63-.5.42-.76.99-.76,1.7,0,.53.14.99.42,1.37.28.38.64.73,1.08,1.03.44.3.91.6,1.42.88.58.34,1.15.69,1.7,1.07.55.38,1,.83,1.36,1.35s.54,1.18.54,1.97c0,.73-.17,1.36-.51,1.92s-.81.98-1.43,1.29c-.62.31-1.33.47-2.15.47-.52,0-1.13-.07-1.83-.19-.7-.13-1.37-.3-2-.51Z"/>
  </g>
  <g>
    <path class="cls-5" d="M48.82,122.36v-7.38h.72v3.42h4.43v-3.42h.72v7.38h-.72v-3.71h-4.43v3.71h-.72Z"/>
    <path class="cls-5" d="M59.43,122.36v-7.38h3.22v.52l-1.85-.24c-.32-.04-.54-.06-.65-.06v3.22c.09,0,.31-.01.65-.03l1.73-.1v.49l-1.73-.11c-.34-.02-.56-.03-.65-.03v3.53c.13,0,.35-.02.66-.06l1.87-.24v.52h-3.25Z"/>
    <path class="cls-5" d="M65.8,122.36l2.84-7.38h.65l2.84,7.38h-.77l-1.31-3.46h-2.39l-1.09,3.46h-.77ZM68.71,115.52l-.98,3.12h2.23l-1.18-3.12h-.06Z"/>
    <path class="cls-5" d="M75.84,122.36v-7.38h2.32c.82,0,1.53.15,2.13.46.6.31,1.08.74,1.41,1.29.34.55.51,1.2.51,1.94s-.17,1.38-.51,1.94c-.34.55-.81.98-1.41,1.29-.61.31-1.32.46-2.13.46h-2.32ZM78.16,115.22h-1.6v6.88h1.6c1.02,0,1.82-.3,2.39-.91.57-.61.86-1.45.86-2.53s-.29-1.93-.86-2.53c-.57-.6-1.37-.91-2.39-.91Z"/>
    <path class="cls-5" d="M85.91,118.66c0-.54.1-1.05.29-1.51s.46-.88.81-1.22c.35-.35.76-.62,1.22-.81.47-.19.97-.29,1.51-.29s1.05.1,1.51.29c.47.19.88.46,1.22.81.35.35.62.76.81,1.22s.29.97.29,1.51-.09,1.03-.28,1.49c-.19.46-.45.86-.79,1.21-.34.35-.73.62-1.18.82v.06c.34,0,.62.04.85.12s.44.2.63.37c.19.17.37.39.54.65.22.32.41.57.57.75s.39.31.66.39v.06h-.5c-.27,0-.5-.04-.67-.13-.17-.08-.31-.2-.42-.34s-.22-.29-.32-.44c-.12-.19-.25-.37-.4-.55-.15-.18-.33-.33-.53-.44-.21-.12-.47-.17-.8-.17h-1.22c-.54,0-1.05-.1-1.51-.29-.47-.19-.88-.46-1.22-.81-.35-.35-.62-.76-.81-1.22-.19-.47-.29-.97-.29-1.51ZM86.71,118.66c0,.72.13,1.34.38,1.88s.61.96,1.07,1.25c.46.3.99.45,1.59.45s1.14-.15,1.59-.45c.46-.3.81-.72,1.07-1.26.25-.54.38-1.17.38-1.88s-.13-1.33-.38-1.87c-.25-.54-.61-.96-1.07-1.26-.46-.3-.99-.45-1.59-.45s-1.13.15-1.59.45-.81.72-1.07,1.25c-.26.54-.38,1.17-.38,1.88Z"/>
    <path class="cls-5" d="M97.7,114.97h.72v4.45c0,.85.21,1.51.63,1.99s1.01.71,1.77.71c.48,0,.89-.09,1.25-.28.36-.19.63-.44.82-.77s.28-.71.27-1.14l-.18-4.96h.72l-.18,4.96c-.03.84-.28,1.48-.75,1.92-.47.44-1.15.65-2.03.65-.95,0-1.69-.28-2.23-.83-.53-.55-.8-1.31-.8-2.27v-4.43Z"/>
    <path class="cls-5" d="M107.13,122.36l2.84-7.38h.65l2.84,7.38h-.77l-1.31-3.46h-2.39l-1.09,3.46h-.77ZM110.04,115.52l-.98,3.12h2.23l-1.18-3.12h-.06Z"/>
    <path class="cls-5" d="M117.17,114.97h1.41c.75,0,1.32.16,1.73.47.41.31.62.75.62,1.31,0,.44-.13.8-.38,1.09s-.63.48-1.11.58v.06c.46.09.84.31,1.14.65s.52.77.66,1.28c.13.46.27.82.4,1.08.13.26.27.44.43.55.16.11.35.19.56.24v.06h-.43c-.31,0-.56-.06-.77-.17s-.37-.3-.51-.57c-.14-.27-.27-.64-.4-1.11-.2-.72-.47-1.24-.81-1.54-.34-.3-.75-.45-1.23-.45h-.06v-.19h.06c1.13,0,1.7-.52,1.7-1.56s-.53-1.54-1.59-1.54h-.7v7.13h-.72v-7.38Z"/>
    <path class="cls-5" d="M127.64,122.36v-7.17c-.11,0-.32.02-.65.06l-2.07.26v-.54h6.16v.54l-2.07-.26c-.33-.04-.55-.06-.65-.06v7.17h-.72Z"/>
    <path class="cls-5" d="M134.79,122.36v-7.38h3.22v.52l-1.85-.24c-.32-.04-.54-.06-.65-.06v3.22c.09,0,.31-.01.65-.03l1.73-.1v.49l-1.73-.11c-.34-.02-.56-.03-.65-.03v3.53c.13,0,.35-.02.66-.06l1.87-.24v.52h-3.25Z"/>
    <path class="cls-5" d="M142.26,114.97h1.41c.75,0,1.32.16,1.73.47.41.31.62.75.62,1.31,0,.44-.13.8-.38,1.09s-.63.48-1.11.58v.06c.46.09.84.31,1.14.65s.52.77.66,1.28c.13.46.27.82.4,1.08.13.26.27.44.43.55.16.11.35.19.56.24v.06h-.43c-.31,0-.56-.06-.77-.17s-.37-.3-.51-.57c-.14-.27-.27-.64-.4-1.11-.2-.72-.47-1.24-.81-1.54-.34-.3-.75-.45-1.23-.45h-.06v-.19h.06c1.13,0,1.7-.52,1.7-1.56s-.53-1.54-1.59-1.54h-.7v7.13h-.72v-7.38Z"/>
    <path class="cls-5" d="M150.39,122.12l.06-.63h.06c.27.24.58.42.93.56s.69.2,1.02.2c.48,0,.86-.13,1.16-.4.29-.26.44-.62.44-1.06,0-.25-.06-.47-.16-.69s-.29-.43-.54-.64c-.25-.22-.59-.45-1.03-.71-.3-.18-.59-.36-.86-.55-.27-.19-.5-.42-.68-.68s-.26-.56-.26-.92c0-.53.19-.97.58-1.29.39-.33.9-.49,1.53-.49.28,0,.58.03.91.09.32.06.57.14.75.23l-.05.59h-.06c-.4-.44-.91-.65-1.54-.65-.45,0-.81.11-1.09.34-.27.23-.41.54-.41.92,0,.29.08.54.23.74.15.21.35.39.59.56.24.17.5.33.77.48.32.18.62.38.92.58.3.2.55.45.74.73.19.29.29.64.29,1.07,0,.39-.09.74-.27,1.04-.18.3-.44.53-.77.7-.33.17-.72.25-1.17.25-.28,0-.61-.03-.99-.1s-.74-.16-1.09-.27Z"/>
  </g>
  <g>
    <g>
      <path class="cls-5" d="M86.17,143.53c.06.57.3.88.84.88.36,0,.66-.2.81-.5.06-.11.2-.04.17.06-.18.57-.58.94-1.39.94s-1.39-.39-1.47-1.23c-.07-.76-.01-1.81-.01-3.03-.16,0-.47,0-.66.07-.07.02-.1-.1-.03-.13.21-.13.56-.36.92-.63.31-.23.6-.55.79-.72.07-.06.13.02.1.09-.02.08-.06.19-.07.4-.01.16-.01.42-.01.54.19,0,.6-.01,1.19-.01.19,0,.3-.01.44-.06-.02.16-.12.42-.2.46-.3,0-.78-.01-1.42-.01-.04,1.23-.06,2.23.01,2.89Z"/>
      <path class="cls-5" d="M88.45,144.17c0-.23.04-.56.11-.91.02-.1.13-.09.13,0,.1.88.6,1.41,1.4,1.4.66-.01.96-.37.96-.78s-.31-.65-1.1-.97c-1-.4-1.42-.85-1.43-1.51,0-.77.57-1.29,1.67-1.3.43,0,.86.06,1.1.14.31.12.35.27.34.5-.01.21-.07.65-.11.82-.02.07-.11.07-.12,0-.12-.77-.64-1.21-1.21-1.2-.5.01-.78.27-.78.66s.25.6,1.05.95c1.03.44,1.44.81,1.45,1.53,0,.79-.68,1.42-1.89,1.43-.46,0-.82-.06-1.07-.13-.31-.09-.49-.25-.49-.64Z"/>
      <path class="cls-5" d="M95.64,140.58c-.08,0-.11,0-.21.01-.08.01-.1-.13-.01-.15.55-.1,1.26-.28,1.49-.29.23-.01.25.08.26.32,0,.72-.01,1.85-.01,2.8,0,1.24.13,1.31.72,1.31.07,0,.08.15,0,.15-.36.02-.72.1-.95.15-.38.07-.77,0-.81-.69-.31.35-.74.72-1.51.72-.87,0-1.55-.38-1.55-1.58,0-1.03.02-1.54,0-1.9-.03-.62-.13-.83-.47-.83-.08,0-.12,0-.21.01-.08.01-.1-.13-.01-.14.55-.1,1.27-.28,1.5-.29.23-.01.25.08.26.34,0,.9-.03,2.44-.01,2.79.02.42.12,1.07.94,1.07.4,0,.74-.12,1.06-.39,0-.27.04-1.79.01-2.56-.02-.62-.13-.83-.47-.83Z"/>
      <path class="cls-5" d="M99.07,141.58c0-1.23-.04-2.7-.06-2.87-.03-.61-.16-.84-.49-.84h-.13c-.08,0-.1-.13-.01-.14.72-.13,1.25-.27,1.52-.27.14,0,.18.08.18.34v4.33c.43-.4.9-.85,1.39-1.33.12-.12.4-.39.02-.42-.09,0-.1-.15,0-.15.31,0,.63.01.94.01.28,0,.45-.02.75-.02.12,0,.1.13.02.15-.36.03-.59.1-.95.35-.5.34-.78.56-1.04.77-.09.08-.08.11-.02.18.34.48,1.21,1.73,1.86,2.4.58.6.95.61,1.35.64.09,0,.11.12,0,.15-.2.03-.65.08-.89.08-.49,0-1.03-.02-1.53-.55-.41-.45-1.1-1.34-1.69-2.14l-.2.18c0,.63.02,1.22.04,1.62.03.56.16.59.58.66.08,0,.09.15,0,.15-.37,0-.87-.03-1.12-.03-.18,0-.79.03-.97.03-.08,0-.07-.13,0-.15.25-.06.38-.1.43-.66.02-.23.03-1.13.03-2.45Z"/>
      <path class="cls-5" d="M107.44,140.58c-.08,0-.11,0-.21.01-.08.01-.1-.13-.01-.15.55-.1,1.26-.28,1.49-.29.23-.01.25.08.26.32,0,.72-.01,1.85-.01,2.8,0,1.24.13,1.31.72,1.31.07,0,.08.15,0,.15-.36.02-.72.1-.95.15-.38.07-.77,0-.81-.69-.31.35-.74.72-1.51.72-.87,0-1.55-.38-1.55-1.58,0-1.03.02-1.54,0-1.9-.03-.62-.13-.83-.47-.83-.08,0-.12,0-.21.01-.08.01-.1-.13-.01-.14.55-.1,1.27-.28,1.5-.29.23-.01.25.08.26.34,0,.9-.03,2.44-.01,2.79.02.42.12,1.07.94,1.07.4,0,.74-.12,1.06-.39,0-.27.04-1.79.01-2.56-.02-.62-.13-.83-.47-.83Z"/>
      <path class="cls-5" d="M110.87,141.58c0-1.23-.04-2.7-.06-2.87-.03-.61-.16-.84-.49-.84h-.13c-.08,0-.1-.13-.01-.14.72-.13,1.25-.27,1.52-.27.14,0,.18.08.18.34v4.33c.43-.4.9-.85,1.39-1.33.12-.12.4-.39.02-.42-.09,0-.1-.15,0-.15.31,0,.63.01.94.01.28,0,.45-.02.75-.02.12,0,.1.13.02.15-.36.03-.59.1-.95.35-.5.34-.78.56-1.04.77-.09.08-.08.11-.02.18.34.48,1.21,1.73,1.86,2.4.58.6.95.61,1.35.64.09,0,.11.12,0,.15-.2.03-.65.08-.89.08-.49,0-1.03-.02-1.53-.55-.41-.45-1.1-1.34-1.69-2.14l-.2.18c0,.63.02,1.22.04,1.62.03.56.16.59.58.66.08,0,.09.15,0,.15-.37,0-.87-.03-1.12-.03-.18,0-.79.03-.97.03-.08,0-.07-.13,0-.15.25-.06.38-.1.43-.66.02-.23.03-1.13.03-2.45Z"/>
      <path class="cls-5" d="M118.56,140.1c1.39,0,2.43.89,2.43,2.39,0,1.24-.91,2.45-2.36,2.45s-2.45-.95-2.45-2.35.93-2.49,2.38-2.49ZM118.56,140.37c-.96,0-1.3.87-1.26,2.24.02.88.21,2.06,1.35,2.06,1.07,0,1.24-1.32,1.21-2.24-.03-.96-.32-2.06-1.3-2.06Z"/>
      <path class="cls-5" d="M121.81,140.58h-.13c-.08,0-.1-.13-.01-.15.72-.15,1.2-.28,1.5-.28.17,0,.2.09.2.35v.4c.25-.34.73-.81,1.45-.81.68,0,1.19.23,1.41.83.31-.44.88-.83,1.57-.83.88,0,1.54.41,1.54,1.58,0,.77-.02,1.86.01,2.39.02.49.22.56.58.62.08,0,.09.15,0,.15-.39,0-.78-.03-1.06-.03-.2,0-.74.02-.95.03-.08,0-.07-.13,0-.15.27-.03.35-.22.36-.6.02-.57.03-1.58,0-2.26-.03-.69-.25-1.13-.96-1.13-.37,0-.72.16-1.03.48.03.16.06.44.06.67,0,.77-.01,1.69.02,2.23.03.49.22.56.58.62.08,0,.09.15,0,.15-.39,0-.78-.03-1.06-.03-.2,0-.74.02-.95.03-.08,0-.07-.13,0-.15.27-.03.35-.22.36-.6.03-.57.03-1.61,0-2.29-.03-.69-.28-1.1-.92-1.1-.47,0-.83.28-1.01.49-.03.98-.03,2.09.01,2.84.03.56.16.59.58.66.08,0,.09.15,0,.15-.37,0-.87-.03-1.12-.03-.18,0-.79.03-.97.03-.08,0-.07-.13,0-.15.25-.06.38-.1.42-.66.04-.55.03-2.26.01-2.61-.03-.62-.16-.84-.49-.84Z"/>
      <path class="cls-5" d="M131.96,144.92c-.84.02-1.28-.37-1.28-1.11,0-.84.6-1.35,1.72-1.53.28-.04.7-.07.83-.07v-.88c0-.59-.11-.96-.69-.96-.21,0-.44.06-.57.2-.13.19-.22.5-.26.88-.01.13-.02.28-.01.43-.44.01-.74-.23-.74-.68,0-.69.83-1.1,1.66-1.1.95,0,1.64.4,1.64,1.29,0,.51-.01,1.49-.01,2.02,0,1.11.17,1.21.74,1.16.08-.01.09.13.01.15l-1.08.17c-.41.07-.68-.08-.68-.69-.29.55-.78.72-1.27.73ZM132.08,142.81c-.27.22-.37.54-.37.87,0,.44.21.75.65.75.47,0,.82-.32.86-.67-.01-.28.01-1.31.01-1.31-.54.01-.92.15-1.15.36Z"/>
    </g>
    <g>
      <g id="Group-5">
        <g class="cls-2">
          <path id="Fill-3" class="cls-4" d="M76.45,145.34l1.99,1.49,1.99-1.49v-7.92l-1.92,1.47s-.09.03-.13,0l-1.93-1.47v7.92ZM78.44,147.07s-.05,0-.07-.02l-2.1-1.57s-.04-.05-.04-.09v-8.2s.02-.08.06-.1c.04-.02.08-.01.11.01l2.03,1.55,2.03-1.55s.08-.03.11-.01c.04.02.06.06.06.1v8.2s-.02.07-.04.09l-2.1,1.57s-.04.02-.06.02h0Z"/>
        </g>
      </g>
      <path id="Fill-6" class="cls-4" d="M76.89,145.12l1.55,1.16,1.55-1.16v-6.81l-1.5,1.15s-.07.02-.09,0l-1.5-1.15v6.81ZM78.44,146.44s-.03,0-.05-.02l-1.62-1.21s-.03-.04-.03-.06v-7s.02-.06.04-.07c.03-.01.06-.01.08,0l1.58,1.2,1.58-1.2s.05-.02.08,0c.03.01.04.04.04.07v7s-.01.05-.03.06l-1.62,1.21s-.03.02-.04.02h0Z"/>
      <g id="Group-12">
        <g class="cls-1">
          <path id="Fill-10" class="cls-4" d="M68.4,145.34l1.99,1.49,1.99-1.49v-7.92l-1.93,1.47s-.09.03-.13,0l-1.93-1.47v7.92ZM70.4,147.07s-.05,0-.07-.02l-2.1-1.57s-.04-.05-.04-.09v-8.2s.02-.08.06-.1c.04-.02.08-.01.12.01l2.03,1.55,2.03-1.55s.08-.03.12-.01c.04.02.06.06.06.1v8.2s-.02.07-.04.09l-2.1,1.57s-.04.02-.07.02h0Z"/>
        </g>
      </g>
      <path id="Fill-13" class="cls-4" d="M68.85,145.12l1.55,1.16,1.55-1.16v-6.81l-1.5,1.15s-.06.02-.09,0l-1.5-1.15v6.81ZM70.4,146.44s-.03,0-.05-.02l-1.62-1.21s-.03-.04-.03-.06v-7s.02-.06.04-.07c.03-.01.06-.01.08,0l1.58,1.2,1.58-1.2s.05-.02.08,0c.03.01.04.04.04.07v7s-.01.05-.03.06l-1.62,1.21s-.03.02-.04.02h0Z"/>
      <g id="Group-19">
        <g class="cls-6">
          <path id="Fill-17" class="cls-4" d="M71.64,143.5l2.77,2,2.77-2v-7.89l-2.7,1.89s-.1.03-.14,0l-2.7-1.89v7.89ZM74.42,145.78s-.05,0-.07-.02l-2.9-2.09s-.05-.06-.05-.1v-8.2s.02-.09.07-.11c.04-.02.09-.02.13,0l2.83,1.98,2.83-1.98s.09-.03.13,0c.04.02.07.06.07.11v8.2s-.02.08-.05.1l-2.9,2.09s-.05.02-.07.02h0Z"/>
        </g>
      </g>
      <path id="Fill-20" class="cls-4" d="M72.09,143.27l2.33,1.68,2.33-1.68v-6.82l-2.28,1.59s-.07.02-.1,0l-2.28-1.59v6.82ZM74.42,145.16s-.04,0-.05-.02l-2.43-1.75s-.04-.05-.04-.08v-7.04s.02-.07.05-.08c.03-.02.07-.01.1,0l2.37,1.66,2.37-1.66s.07-.02.1,0c.03.02.05.05.05.08v7.04s-.01.06-.04.08l-2.42,1.75s-.04.02-.06.02h0Z"/>
    </g>
  </g>
</svg>